<svg width="87" height="13" viewBox="0 0 87 13" fill="none" xmlns="http://www.w3.org/2000/svg">
    <path d="M6.86331 0L9.19627 3.97761L13.7266 4.95182L10.6381 8.38433L11.1051 12.964L6.86331 11.1078L2.62155 12.964L3.08849 8.38433L0 4.95182L4.53034 3.97761L6.86331 0Z" fill="#FFCB45"/>
    <path d="M25.1656 0L27.4985 3.97761L32.0289 4.95182L28.9404 8.38433L29.4073 12.964L25.1656 11.1078L20.9238 12.964L21.3907 8.38433L18.3022 4.95182L22.8326 3.97761L25.1656 0Z" fill="#FFCB45"/>
    <path d="M43.4678 0L45.8008 3.97761L50.3311 4.95182L47.2426 8.38433L47.7096 12.964L43.4678 11.1078L39.226 12.964L39.693 8.38433L36.6045 4.95182L41.1348 3.97761L43.4678 0Z" fill="#FFCB45"/>
    <path d="M61.7696 0L64.1025 3.97761L68.6329 4.95182L65.5444 8.38433L66.0113 12.964L61.7696 11.1078L57.5278 12.964L57.9947 8.38433L54.9062 4.95182L59.4366 3.97761L61.7696 0Z" fill="#FFCB45"/>
    <path d="M80.0718 0L82.4048 3.97761L86.9351 4.95182L83.8466 8.38433L84.3136 12.964L80.0718 11.1078L75.83 12.964L76.297 8.38433L73.2085 4.95182L77.7388 3.97761L80.0718 0Z" fill="#FFCB45"/>
    </svg>
    