<svg width="87" height="14" viewBox="0 0 87 14" fill="none" xmlns="http://www.w3.org/2000/svg">
    <path d="M6.86331 0.690552L9.19627 4.66816L13.7266 5.64237L10.6381 9.07488L11.1051 13.6546L6.86331 11.7984L2.62155 13.6546L3.08849 9.07488L0 5.64237L4.53034 4.66816L6.86331 0.690552Z" fill="#FFCB45"/>
    <path d="M25.1656 0.690552L27.4985 4.66816L32.0289 5.64237L28.9404 9.07488L29.4073 13.6546L25.1656 11.7984L20.9238 13.6546L21.3907 9.07488L18.3022 5.64237L22.8326 4.66816L25.1656 0.690552Z" fill="#FFCB45"/>
    <path d="M43.4678 0.690552L45.8008 4.66816L50.3311 5.64237L47.2426 9.07488L47.7096 13.6546L43.4678 11.7984L39.226 13.6546L39.693 9.07488L36.6045 5.64237L41.1348 4.66816L43.4678 0.690552Z" fill="#F2F2F2"/>
    <path d="M61.7696 0.690552L64.1025 4.66816L68.6329 5.64237L65.5444 9.07488L66.0113 13.6546L61.7696 11.7984L57.5278 13.6546L57.9947 9.07488L54.9062 5.64237L59.4366 4.66816L61.7696 0.690552Z" fill="#F2F2F2"/>
    <path d="M80.0718 0.690552L82.4048 4.66816L86.9351 5.64237L83.8466 9.07488L84.3136 13.6546L80.0718 11.7984L75.83 13.6546L76.297 9.07488L73.2085 5.64237L77.7388 4.66816L80.0718 0.690552Z" fill="#F2F2F2"/>
    </svg>
    