<svg width="87" height="14" viewBox="0 0 87 14" fill="none" xmlns="http://www.w3.org/2000/svg">
    <path d="M6.86331 0.460449L9.19627 4.43806L13.7266 5.41227L10.6381 8.84477L11.1051 13.4245L6.86331 11.5683L2.62155 13.4245L3.08849 8.84477L0 5.41227L4.53034 4.43806L6.86331 0.460449Z" fill="#FFCB45"/>
    <path d="M25.1656 0.460449L27.4985 4.43806L32.0289 5.41227L28.9404 8.84477L29.4073 13.4245L25.1656 11.5683L20.9238 13.4245L21.3907 8.84477L18.3022 5.41227L22.8326 4.43806L25.1656 0.460449Z" fill="#FFCB45"/>
    <path d="M43.4678 0.460449L45.8008 4.43806L50.3311 5.41227L47.2426 8.84477L47.7096 13.4245L43.4678 11.5683L39.226 13.4245L39.693 8.84477L36.6045 5.41227L41.1348 4.43806L43.4678 0.460449Z" fill="#FFCB45"/>
    <path d="M61.7696 0.460449L64.1025 4.43806L68.6329 5.41227L65.5444 8.84477L66.0113 13.4245L61.7696 11.5683L57.5278 13.4245L57.9947 8.84477L54.9062 5.41227L59.4366 4.43806L61.7696 0.460449Z" fill="#F2F2F2"/>
    <path d="M80.0718 0.460449L82.4048 4.43806L86.9351 5.41227L83.8466 8.84477L84.3136 13.4245L80.0718 11.5683L75.83 13.4245L76.297 8.84477L73.2085 5.41227L77.7388 4.43806L80.0718 0.460449Z" fill="#F2F2F2"/>
    </svg>
    