<svg width="87" height="14" viewBox="0 0 87 14" fill="none" xmlns="http://www.w3.org/2000/svg">
    <path d="M6.86331 0.230103L9.19627 4.20771L13.7266 5.18192L10.6381 8.61443L11.1051 13.1941L6.86331 11.3379L2.62155 13.1941L3.08849 8.61443L0 5.18192L4.53034 4.20771L6.86331 0.230103Z" fill="#FFCB45"/>
    <path d="M25.1656 0.230103L27.4985 4.20771L32.0289 5.18192L28.9404 8.61443L29.4073 13.1941L25.1656 11.3379L20.9238 13.1941L21.3907 8.61443L18.3022 5.18192L22.8326 4.20771L25.1656 0.230103Z" fill="#FFCB45"/>
    <path d="M43.4678 0.230103L45.8008 4.20771L50.3311 5.18192L47.2426 8.61443L47.7096 13.1941L43.4678 11.3379L39.226 13.1941L39.693 8.61443L36.6045 5.18192L41.1348 4.20771L43.4678 0.230103Z" fill="#FFCB45"/>
    <path d="M61.7696 0.230103L64.1025 4.20771L68.6329 5.18192L65.5444 8.61443L66.0113 13.1941L61.7696 11.3379L57.5278 13.1941L57.9947 8.61443L54.9062 5.18192L59.4366 4.20771L61.7696 0.230103Z" fill="#FFCB45"/>
    <path d="M80.0718 0.230103L82.4048 4.20771L86.9351 5.18192L83.8466 8.61443L84.3136 13.1941L80.0718 11.3379L75.83 13.1941L76.297 8.61443L73.2085 5.18192L77.7388 4.20771L80.0718 0.230103Z" fill="#F2F2F2"/>
    </svg>
    