<svg width="15" height="15" viewBox="0 0 15 15" fill="none" xmlns="http://www.w3.org/2000/svg">
    <g clip-path="url(#clip0_1661_14567)">
    <path d="M0 10H15V15H0V10Z" fill="#1FBA4A"/>
    <path d="M0 0H15V5H0V0Z" fill="#0099B5"/>
    <path d="M0 4.79999H15V10.2H0V4.79999Z" fill="#CE1126"/>
    <path d="M0 5.09998H15V9.89998H0V5.09998Z" fill="white"/>
    <path d="M3.14996 4.19998C3.89554 4.19998 4.49996 3.39409 4.49996 2.39998C4.49996 1.40586 3.89554 0.599976 3.14996 0.599976C2.40437 0.599976 1.79996 1.40586 1.79996 2.39998C1.79996 3.39409 2.40437 4.19998 3.14996 4.19998Z" fill="white"/>
    <path d="M3.60001 4.19998C4.34559 4.19998 4.95001 3.39409 4.95001 2.39998C4.95001 1.40586 4.34559 0.599976 3.60001 0.599976C2.85442 0.599976 2.25 1.40586 2.25 2.39998C2.25 3.39409 2.85442 4.19998 3.60001 4.19998Z" fill="#0099B5"/>
    <path d="M6.1195 3.48059L6.034 3.8226L6.1645 3.8826" fill="white"/>
    <path d="M6.1195 3.48059L6.034 3.8226L6.1645 3.8826" fill="white"/>
    <path d="M6.1195 3.48059L6.034 3.8226L6.1645 3.8826" fill="white"/>
    <path d="M6.1195 3.48059L6.034 3.8226L6.1645 3.8826" fill="white"/>
    <path d="M6.1195 3.48059L6.034 3.8226L6.1645 3.8826" fill="white"/>
    <path d="M6.1195 3.48059L6.034 3.8226L6.1645 3.8826" fill="white"/>
    <path d="M6.1195 3.48059L6.034 3.8226L6.1645 3.8826" fill="white"/>
    <path d="M6.1195 3.48059L6.034 3.8226L6.1645 3.8826" fill="white"/>
    <path d="M6.1195 3.48059L6.034 3.8226L6.1645 3.8826" fill="white"/>
    <path d="M6.1195 3.48059L6.034 3.8226L6.1645 3.8826" fill="white"/>
    <path d="M6.1195 3.48059L6.034 3.8226L6.1645 3.8826" fill="white"/>
    <path d="M6.1195 3.48059L6.034 3.8226L6.1645 3.8826" fill="white"/>
    <path d="M6.1195 3.48059L6.034 3.8226L6.1645 3.8826" fill="white"/>
    <path d="M6.1195 3.48059L6.034 3.8226L6.1645 3.8826" fill="white"/>
    <path d="M6.1195 3.48059L6.034 3.8226L6.1645 3.8826" fill="white"/>
    <path d="M6.1195 3.48059L6.034 3.8226L6.1645 3.8826" fill="white"/>
    <path d="M6.1195 3.48059L6.034 3.8226L6.1645 3.8826" fill="white"/>
    <path d="M6.1195 3.48059L6.034 3.8226L6.1645 3.8826" fill="white"/>
    <path d="M6.1195 3.48059L6.034 3.8226L6.1645 3.8826" fill="white"/>
    <path d="M6.1195 3.48059L6.034 3.8226L6.1645 3.8826" fill="white"/>
    <path d="M6.1195 3.48059L6.034 3.8226L6.1645 3.8826" fill="white"/>
    <path d="M6.1195 3.48059L6.034 3.8226L6.1645 3.8826" fill="white"/>
    <path d="M6.1195 3.48059L6.034 3.8226L6.1645 3.8826" fill="white"/>
    <path d="M6.1195 3.48059L6.034 3.8226L6.1645 3.8826" fill="white"/>
    <path d="M6.1195 3.48059L6.034 3.8226L6.1645 3.8826" fill="white"/>
    <path d="M6.1195 3.48059L6.034 3.8226L6.1645 3.8826" fill="white"/>
    <path d="M6.1195 3.48059L6.034 3.8226L6.1645 3.8826" fill="white"/>
    <path d="M6.1195 3.48059L6.034 3.8226L6.1645 3.8826" fill="white"/>
    <path d="M6.1195 3.48059L6.034 3.8226L6.1645 3.8826" fill="white"/>
    <path d="M6.1195 3.48059L6.034 3.8226L6.1645 3.8826" fill="white"/>
    <path d="M6.1195 3.48059L6.034 3.8226L6.1645 3.8826" fill="white"/>
    <path d="M6.1195 3.48059L6.034 3.8226L6.1645 3.8826" fill="white"/>
    <path d="M6.1195 3.48059L6.034 3.8226L6.1645 3.8826" fill="white"/>
    <path d="M6.1195 3.48059L6.034 3.8226L6.1645 3.8826" fill="white"/>
    <path d="M6.1195 3.48059L6.034 3.8226L6.1645 3.8826" fill="white"/>
    <path d="M6.1195 3.48059L6.034 3.8226L6.1645 3.8826" fill="white"/>
    <path d="M6.1195 3.48059L6.034 3.8226L6.1645 3.8826" fill="white"/>
    <path d="M6.1195 3.48059L6.034 3.8226L6.1645 3.8826" fill="white"/>
    <path d="M6.1195 3.48059L6.034 3.8226L6.1645 3.8826" fill="white"/>
    <path d="M6.1195 3.48059L6.034 3.8226L6.1645 3.8826" fill="white"/>
    <path d="M6.1195 3.48059L6.034 3.8226L6.1645 3.8826" fill="white"/>
    <path d="M6.1195 3.48059L6.034 3.8226L6.1645 3.8826" fill="white"/>
    <path d="M6.1195 3.48059L6.034 3.8226L6.1645 3.8826" fill="white"/>
    <path d="M6.1195 3.48059L6.034 3.8226L6.1645 3.8826" fill="white"/>
    <path d="M6.1195 3.48059L6.034 3.8226L6.1645 3.8826" fill="white"/>
    <path d="M6.1195 3.48059L6.034 3.8226L6.1645 3.8826" fill="white"/>
    <path d="M6.1195 3.48059L6.034 3.8226L6.1645 3.8826" fill="white"/>
    <path d="M6.1195 3.48059L6.034 3.8226L6.1645 3.8826" fill="white"/>
    <path d="M6.1195 3.48059L6.034 3.8226L6.1645 3.8826" fill="white"/>
    <path d="M6.1195 3.48059L6.034 3.8226L6.1645 3.8826" fill="white"/>
    <path d="M6.1195 3.48059L6.034 3.8226L6.1645 3.8826" fill="white"/>
    <path d="M6.1195 3.48059L6.034 3.8226L6.1645 3.8826" fill="white"/>
    <path d="M6.1195 3.48059L6.034 3.8226L6.1645 3.8826" fill="white"/>
    <path d="M6.1195 3.48059L6.034 3.8226L6.1645 3.8826" fill="white"/>
    <path d="M6.1195 3.48059L6.034 3.8226L6.1645 3.8826" fill="white"/>
    <path d="M6.1195 3.48059L6.034 3.8226L6.1645 3.8826" fill="white"/>
    <path d="M6.1195 3.48059L6.034 3.8226L6.1645 3.8826" fill="white"/>
    <path d="M6.1195 3.48059L6.034 3.8226L6.1645 3.8826" fill="white"/>
    <path d="M6.1195 3.48059L6.034 3.8226L6.1645 3.8826" fill="white"/>
    <path d="M6.1195 3.48059L6.034 3.8226L6.1645 3.8826" fill="white"/>
    </g>
    <defs>
    <clipPath id="clip0_1661_14567">
    <rect width="15" height="15" rx="6" fill="white"/>
    </clipPath>
    </defs>
    </svg>
    