<svg width="116" height="28" viewBox="0 0 116 28" fill="none" xmlns="http://www.w3.org/2000/svg">
<g clip-path="url(#clip0_1661_14550)">
<path d="M81.1748 4.76344L78.7587 2.33337L76.3426 4.76344L78.7587 7.19351L81.1748 4.76344Z" fill="#0A0A0A"/>
<path d="M40.6244 8.56641C39.5918 8.56641 38.6569 8.86986 37.8453 9.46801C37.0253 10.0834 36.4516 10.7715 36.1285 11.5323C35.5166 9.55796 34.1356 8.56641 31.9556 8.56641C30.8211 8.56641 29.899 8.88257 29.1765 9.51946C28.4414 10.1561 27.9784 10.8058 27.7699 11.4596V8.69451H24.5066V22.0287H27.7699V14.0795C27.8295 13.4256 28.1312 12.7974 28.6541 12.1862C29.1639 11.5835 29.8607 11.2846 30.7488 11.2846C32.2445 11.2846 33.2006 12.2331 33.2006 14.289V22.0287H36.4642V13.9983C36.4642 13.4385 36.7362 12.8358 37.2842 12.2077C37.8197 11.5966 38.555 11.2846 39.4771 11.2846C40.9388 11.2846 41.8949 12.1989 41.8949 14.289V22.0287H45.1583V14.1991C45.1583 12.2589 44.7464 10.8315 43.9134 9.92114C43.0805 9.01942 41.9841 8.56641 40.6244 8.56641Z" fill="#0A0A0A"/>
<path d="M46.6468 15.383C46.6468 24.6563 60.1759 24.2709 60.1759 15.383C60.1759 6.3721 46.6468 6.35729 46.6468 15.383ZM57.0142 15.3914C57.0142 17.5002 55.7613 19.5413 53.4027 19.5413C51.0391 19.5413 49.7828 17.5069 49.7828 15.3914C49.7828 13.2504 50.9988 11.233 53.4027 11.233C55.8003 11.233 57.0142 13.2589 57.0142 15.3914Z" fill="#0A0A0A"/>
<path d="M68.8945 8.56639C67.985 8.56639 67.1991 8.76718 66.5149 9.16874C65.8308 9.56646 65.3336 10.058 65.0487 10.6176V3.92493H61.7853V22.0287H65.0487V19.8236C65.1593 20.3063 65.5459 20.8194 66.2048 21.3706C66.8676 21.9303 67.7387 22.2083 68.8222 22.2083C72.6322 22.2083 75.0385 18.9195 75.0385 15.3703C75.0385 11.8737 72.6602 8.56639 68.8945 8.56639ZM68.2146 19.5413C67.2542 19.5413 66.4682 19.1782 65.8308 18.4643C65.1974 17.7507 64.8874 16.708 64.8874 15.3572C64.8874 14.0155 65.1974 12.9855 65.8308 12.2847C66.4682 11.5835 67.2542 11.233 68.2146 11.233C70.6288 11.233 71.5758 13.1941 71.5758 15.3703C71.5758 17.5511 70.6501 19.5413 68.2146 19.5413Z" fill="#0A0A0A"/>
<path d="M83.118 22.0287H86.3815V3.92493H83.118V22.0287Z" fill="#0A0A0A"/>
<path d="M97.9004 16.695C97.7899 17.3361 97.454 17.9515 96.893 18.5669C96.3323 19.1781 95.5972 19.4901 94.6879 19.4901C92.9328 19.4901 92.0616 18.5285 92.0616 16.5968V8.69446H88.7982V16.7719C88.7982 20.3917 90.3663 22.2083 93.5192 22.2083C94.6366 22.2083 95.5843 21.8833 96.3576 21.2295C97.1312 20.5928 97.641 19.9431 97.9004 19.2893V22.0286H101.164V8.69446H97.9004V16.695Z" fill="#0A0A0A"/>
<path fill-rule="evenodd" clip-rule="evenodd" d="M102.659 8.69446H106.338L109.288 12.9879L112.239 8.69446H115.917L111.278 15.3705L115.905 22.0286H111.925L109.288 18.0563L106.651 22.0286H102.672L107.298 15.3705L102.659 8.69446Z" fill="#0A0A0A"/>
<path d="M77.127 22.0286H80.3904V8.69446H77.127V22.0286Z" fill="#0A0A0A"/>
<path d="M15.1969 25.7638L16.1579 24.7974V3.40198L15.1919 2.4305H3.19881L2.23786 3.39708V24.7974L3.19881 25.7638H15.1969ZM2.23786 28.0972L-0.0821355 25.8267C-0.0821355 17.9899 -0.0834115 10.2674 -0.0821355 2.4305L2.23786 0.097168H16.1479L18.4779 2.4305C18.4765 10.2674 18.4779 17.927 18.4779 25.7638L16.1579 28.0972H2.23786Z" fill="#19B423"/>
<path d="M10.9378 23.4305H7.45801V24.5973H10.9378V23.4305Z" fill="#19B423"/>
</g>
<defs>
<clipPath id="clip0_1661_14550">
<rect width="116" height="28" fill="white"/>
</clipPath>
</defs>
</svg>
